# xmcd
#
# Track frame offsets:
#	150
#	12550
#	27110
#	42734
#	67231
#	81413
#	104491
#	120614
#	141599
#	162299
#	172902
#	183038
#
# Disc length: 2618 seconds
#
# Revision: 1
# Processed by: cddbd v1.5.2PL0 Copyright (c) Steve Scherf et al.
# Submitted via: audiograbber 1.83.01
#
DISCID=aa0a380c
DTITLE=B471 - Sticky Bluegrass § Irish Tunes
DYEAR=1900
DGENRE=Bluegrass
TTITLE0=Blackberry Blossom
TTITLE1=Whiskey Before Breakfast
TTITLE2=Angeline the Baker
TTITLE3=Ookpik Waltz
TTITLE4=Clinch Mountain Backstep
TTITLE5=Cooly's Reel
TTITLE6=Salt Creek
TTITLE7=Irish Medley
TTITLE8=Jerusalem Ridge
TTITLE9=Cherokee Shuffle
TTITLE10=Maids of Mitchelstown
TTITLE11=New Camptown Races
EXTD=
EXTT0=
EXTT1=
EXTT2=
EXTT3=
EXTT4=
EXTT5=
EXTT6=
EXTT7=
EXTT8=
EXTT9=
EXTT10=
EXTT11=
PLAYORDER=
